<?xml version="1.0" encoding="UTF-8"?>
<svg width="82px" height="99px" viewBox="0 0 82 99" version="1.1" xmlns="http://www.w3.org/2000/svg" xmlns:xlink="http://www.w3.org/1999/xlink">
    <!-- Generator: Sketch 46.2 (44496) - http://www.bohemiancoding.com/sketch -->
    <title>Group</title>
    <desc>Created with Sketch.</desc>
    <defs></defs>
    <g id="Page-1" stroke="none" stroke-width="1" fill="none" fill-rule="evenodd">
        <g id="Group" fill-rule="nonzero" fill="#000000">
            <path d="M70.4718276,69.89419 L78.8483076,69.89419 L79.8894276,69.89419 C79.8980676,68.5030836 79.6021476,67.0881048 78.9649476,65.7469134 C63.7239876,34.0140623 47.3835876,18.9419346 29.0041476,19.6103602 C0.371187562,20.6781048 -16.5329724,61.7103176 -18.3646524,66.3892963 C-20.2719324,71.2549134 -17.8959324,76.7433814 -13.0532124,78.6575091 C-11.9235324,79.1132538 -10.7549724,79.3237644 -9.60585244,79.3237644 C-5.84961244,79.3237644 -2.29857244,77.0472112 -0.838412438,73.3231261 C3.53342756,62.1747431 16.7461476,39.0033814 29.7061476,38.5215942 C39.3872676,38.1504878 50.8525476,50.7485729 62.0003076,73.9698495 C63.6203076,77.3467006 66.9747876,79.3020623 70.4718276,79.3107431 L70.4718276,78.3081048 L70.4718276,69.89419 L70.4718276,69.89419 Z" id="Shape-Copy" transform="translate(30.433189, 49.456422) scale(-1, 1) rotate(270.000000) translate(-30.433189, -49.456422) "></path>
            <rect id="Rectangle-path" transform="translate(73.445701, 89.573319) scale(-1, 1) translate(-73.445701, -89.573319) " x="65.289541" y="81.3785957" width="16.31232" height="16.3894468"></rect>
            <rect id="Rectangle-path" transform="translate(73.445701, 52.573319) scale(-1, 1) translate(-73.445701, -52.573319) " x="65.289541" y="44.3785957" width="16.31232" height="16.3894468"></rect>
            <rect id="Rectangle-path" transform="translate(73.133381, 75.573319) scale(-1, 1) translate(-73.133381, -75.573319) " x="64.977221" y="67.3785957" width="16.31232" height="16.3894468"></rect>
        </g>
    </g>
</svg>