<svg xmlns:dc="http://purl.org/dc/elements/1.1/" xmlns:cc="http://creativecommons.org/ns#" xmlns:rdf="http://www.w3.org/1999/02/22-rdf-syntax-ns#" xmlns:svg="http://www.w3.org/2000/svg" xmlns="http://www.w3.org/2000/svg" xmlns:sodipodi="http://sodipodi.sourceforge.net/DTD/sodipodi-0.dtd" xmlns:inkscape="http://www.inkscape.org/namespaces/inkscape" viewBox="0 0 64.000001 80.00000125" version="1.1" x="0px" y="0px"><g style="" display="inline"><g transform="matrix(1.0021244,0,0,1.0252447,-0.06813623,-0.01565436)"><path transform="matrix(1.1703596,0,0,0.57561927,-3.5655073,5.3229539)" d="M 43.337258,39.263248 17.445166,39.254947 30.3984,16.835889 Z" style="" fill="#000000" fill-opacity="1" fill-rule="nonzero" stroke="#000000" stroke-width="4.80792952" stroke-linecap="round" stroke-linejoin="round" stroke-miterlimit="4" stroke-dasharray="none" stroke-dashoffset="0" stroke-opacity="1"/><path d="m 20,28.525391 0,14.381992 6,0 0,-8.500788 12,0 0,8.500788 6,0 0,-14.381992 -24,0 z" style="" fill="#000000" fill-opacity="1" fill-rule="nonzero" stroke="#000000" stroke-width="3.94625735" stroke-linecap="round" stroke-linejoin="round" stroke-miterlimit="4" stroke-dasharray="none" stroke-dashoffset="0" stroke-opacity="1"/></g></g><g style="" display="inline"><path style="display:inline;opacity:1;fill:none;fill-opacity:1;fill-rule:nonzero;stroke:#000000;stroke-width:5.48600006;stroke-linecap:square;stroke-linejoin:round;stroke-miterlimit:11.19999981;stroke-dasharray:none;stroke-dashoffset:0;stroke-opacity:1" d="M 2.743,31.9998 A 29.257143,29.257143 0 0 0 32.00014,61.257 29.257143,29.257143 0 0 0 61.257283,31.9998 29.257143,29.257143 0 0 0 32.00014,2.7427007 29.257143,29.257143 0 0 0 2.743,31.9998 Z"/></g><text x="0" y="79.000001" fill="#000000" font-size="5px" font-weight="bold" font-family="'Helvetica Neue', Helvetica, Arial-Unicode, Arial, Sans-serif">Created by Giovanny</text><text x="0" y="84.000001" fill="#000000" font-size="5px" font-weight="bold" font-family="'Helvetica Neue', Helvetica, Arial-Unicode, Arial, Sans-serif">from the Noun Project</text></svg>