<svg xmlns="http://www.w3.org/2000/svg" xmlns:xlink="http://www.w3.org/1999/xlink" version="1.1" x="0px" y="0px" viewBox="0 0 100 125" style="enable-background:new 0 0 100 100;" xml:space="preserve"><circle cx="13.8" cy="25.8" r="2.2"/><circle cx="20.9" cy="25.8" r="2.2"/><circle cx="27.9" cy="25.8" r="2.2"/><path d="M74.8,60.8H23.7c-0.8,0-1.5,0.7-1.5,1.5s0.7,1.5,1.5,1.5h51.1c0.8,0,1.5-0.7,1.5-1.5S75.6,60.8,74.8,60.8z"/><path d="M66.2,67.8h-34c-0.8,0-1.5,0.7-1.5,1.5s0.7,1.5,1.5,1.5h34c0.8,0,1.5-0.7,1.5-1.5S67.1,67.8,66.2,67.8z"/><path d="M85.7,17.7H12.8c-4.5,0-8.2,3.7-8.2,8.2l0,47.6c0,4.5,3.7,8.2,8.2,8.2h72.9c4.5,0,8.2-3.7,8.2-8.2l0-47.6  C93.9,21.3,90.2,17.7,85.7,17.7z M90.8,73.4c0,2.8-2.3,5.2-5.2,5.2H12.7c-2.8,0-5.2-2.3-5.2-5.2l0-47.6c0-2.8,2.3-5.2,5.2-5.2h72.9  c2.8,0,5.2,2.3,5.2,5.2L90.8,73.4z"/><path d="M57.8,51.2l-4.3-4.3c0.9-1.3,1.4-2.8,1.4-4.5c0-4.4-3.6-8-8-8s-8,3.6-8,8s3.6,8,8,8c1.5,0,2.9-0.4,4.1-1.1l4.4,4.4  c0.3,0.3,0.8,0.5,1.2,0.5c0.4,0,0.9-0.2,1.2-0.5C58.5,53,58.5,51.9,57.8,51.2z M42.4,42.5c0-2.5,2-4.5,4.5-4.5c2.5,0,4.5,2,4.5,4.5  c0,2.5-2,4.5-4.5,4.5C44.4,47,42.4,44.9,42.4,42.5z"/><text x="0" y="115" fill="#000000" font-size="5px" font-weight="bold" font-family="'Helvetica Neue', Helvetica, Arial-Unicode, Arial, Sans-serif">Created by Aneeque Ahmed</text><text x="0" y="120" fill="#000000" font-size="5px" font-weight="bold" font-family="'Helvetica Neue', Helvetica, Arial-Unicode, Arial, Sans-serif">from the Noun Project</text></svg>